<svg width="16" height="16" viewBox="0 0 16 16" fill="none" xmlns="http://www.w3.org/2000/svg">
<path d="M2 3.5C2 3.10218 2.15804 2.72064 2.43934 2.43934C2.72065 2.15804 3.10218 2 3.5 2H5.5C5.89783 2 6.27936 2.15804 6.56067 2.43934C6.84197 2.72064 7 3.10218 7 3.5V5.5C7 5.89782 6.84197 6.27936 6.56067 6.56066C6.27936 6.84196 5.89783 7 5.5 7H5V8.883C5.07467 8.92567 5.144 8.979 5.208 9.043L6.959 10.794C7.02234 10.8573 7.07534 10.926 7.118 11H9V10.5C9 10.1022 9.15804 9.72064 9.43934 9.43934C9.72065 9.15804 10.1022 9 10.5 9H12.5C12.8978 9 13.2794 9.15804 13.5607 9.43934C13.842 9.72064 14 10.1022 14 10.5V12.5C14 12.8978 13.842 13.2794 13.5607 13.5607C13.2794 13.842 12.8978 14 12.5 14H10.5C10.1022 14 9.72065 13.842 9.43934 13.5607C9.15804 13.2794 9 12.8978 9 12.5V12H7.12C7.07604 12.0761 7.02224 12.146 6.96 12.208L5.207 13.96C5.01948 14.1475 4.76517 14.2528 4.5 14.2528C4.23484 14.2528 3.98053 14.1475 3.793 13.96L2.042 12.21C1.94903 12.1171 1.87527 12.0068 1.82495 11.8854C1.77462 11.764 1.74872 11.6339 1.74872 11.5025C1.74872 11.3711 1.77462 11.241 1.82495 11.1196C1.87527 10.9982 1.94903 10.8879 2.042 10.795L3.793 9.044C3.85634 8.98067 3.925 8.92767 3.999 8.885V7H3.499C3.10135 6.99973 2.72008 6.84158 2.43899 6.56031C2.1579 6.27903 2 5.89765 2 5.5V3.5ZM3.5 3C3.3674 3 3.24022 3.05268 3.14645 3.14645C3.05268 3.24021 3 3.36739 3 3.5V5.5C3 5.63261 3.05268 5.75979 3.14645 5.85355C3.24022 5.94732 3.3674 6 3.5 6H5.5C5.63261 6 5.75979 5.94732 5.85356 5.85355C5.94733 5.75979 6 5.63261 6 5.5V3.5C6 3.36739 5.94733 3.24021 5.85356 3.14645C5.75979 3.05268 5.63261 3 5.5 3H3.5ZM10.5 10C10.3674 10 10.2402 10.0527 10.1465 10.1464C10.0527 10.2402 10 10.3674 10 10.5V12.5C10 12.6326 10.0527 12.7598 10.1465 12.8536C10.2402 12.9473 10.3674 13 10.5 13H12.5C12.6326 13 12.7598 12.9473 12.8536 12.8536C12.9473 12.7598 13 12.6326 13 12.5V10.5C13 10.3674 12.9473 10.2402 12.8536 10.1464C12.7598 10.0527 12.6326 10 12.5 10H10.5ZM2.75 11.501L4.501 13.252L6.252 11.502L4.502 9.75L2.75 11.501Z" fill="white"/>
</svg>
