<svg width="16" height="16" viewBox="0 0 16 16" fill="none" xmlns="http://www.w3.org/2000/svg">
<path d="M9.83598 6.66667C10.48 6.66667 11.0026 7.18933 11.0026 7.83333V10.9993C11.0026 11.7952 10.6865 12.5584 10.1238 13.1211C9.56104 13.6839 8.79781 14 8.00198 14C7.20615 14 6.44292 13.6839 5.88019 13.1211C5.31745 12.5584 5.00131 11.7952 5.00131 10.9993V7.83333C5.00131 7.18933 5.52331 6.66667 6.16798 6.66667H9.83598ZM9.83598 7.66667H6.16798C6.12378 7.66667 6.08138 7.68423 6.05013 7.71548C6.01887 7.74674 6.00131 7.78913 6.00131 7.83333V10.9993C6.00131 11.5299 6.2121 12.0388 6.58729 12.414C6.96249 12.7892 7.47137 13 8.00198 13C8.53259 13 9.04147 12.7892 9.41666 12.414C9.79186 12.0388 10.0026 11.5299 10.0026 10.9993V7.83333C10.0026 7.78913 9.98509 7.74674 9.95383 7.71548C9.92257 7.68423 9.88018 7.66667 9.83598 7.66667ZM2.49998 6.66667H4.75398C4.51885 6.95077 4.37522 7.29939 4.34198 7.66667H2.49998C2.45578 7.66667 2.41338 7.68423 2.38213 7.71548C2.35087 7.74674 2.33331 7.78913 2.33331 7.83333V9.99933C2.33314 10.2513 2.3901 10.5 2.49991 10.7268C2.60972 10.9536 2.76951 11.1525 2.96728 11.3086C3.16505 11.4648 3.39564 11.574 3.64171 11.6282C3.88779 11.6823 4.14294 11.68 4.38798 11.6213C4.44465 11.9573 4.54798 12.278 4.68998 12.576C4.46953 12.636 4.23954 12.6662 3.99998 12.6667C3.64973 12.6667 3.30291 12.5977 2.97934 12.4636C2.65576 12.3296 2.36176 12.1331 2.11413 11.8854C1.86649 11.6377 1.67008 11.3436 1.53611 11.02C1.40214 10.6964 1.33323 10.3496 1.33331 9.99933V7.83333C1.33331 7.18933 1.85598 6.66667 2.49998 6.66667ZM11.25 6.66667H13.5C14.144 6.66667 14.6666 7.18933 14.6666 7.83333V10C14.6667 10.4088 14.5728 10.8121 14.3922 11.1788C14.2116 11.5455 13.9491 11.8658 13.625 12.1149C13.3009 12.364 12.9239 12.5353 12.523 12.6155C12.1222 12.6956 11.7083 12.6826 11.3133 12.5773C11.456 12.2787 11.5593 11.958 11.6166 11.622C11.7398 11.6513 11.8675 11.6662 12 11.6667C12.442 11.6667 12.8659 11.4911 13.1785 11.1785C13.4911 10.866 13.6666 10.442 13.6666 10V7.83333C13.6666 7.78913 13.6491 7.74674 13.6178 7.71548C13.5866 7.68423 13.5442 7.66667 13.5 7.66667H11.662C11.6287 7.29939 11.4851 6.95077 11.25 6.66667ZM7.99998 2C8.53041 2 9.03912 2.21071 9.41419 2.58579C9.78927 2.96086 9.99998 3.46957 9.99998 4C9.99998 4.53043 9.78927 5.03914 9.41419 5.41421C9.03912 5.78929 8.53041 6 7.99998 6C7.46955 6 6.96084 5.78929 6.58577 5.41421C6.21069 5.03914 5.99998 4.53043 5.99998 4C5.99998 3.46957 6.21069 2.96086 6.58577 2.58579C6.96084 2.21071 7.46955 2 7.99998 2ZM12.3333 2.66667C12.7753 2.66667 13.1993 2.84226 13.5118 3.15482C13.8244 3.46738 14 3.89131 14 4.33333C14 4.77536 13.8244 5.19928 13.5118 5.51184C13.1993 5.82441 12.7753 6 12.3333 6C11.8913 6 11.4674 5.82441 11.1548 5.51184C10.8422 5.19928 10.6666 4.77536 10.6666 4.33333C10.6666 3.89131 10.8422 3.46738 11.1548 3.15482C11.4674 2.84226 11.8913 2.66667 12.3333 2.66667ZM3.66665 2.66667C4.10867 2.66667 4.5326 2.84226 4.84516 3.15482C5.15772 3.46738 5.33331 3.89131 5.33331 4.33333C5.33331 4.77536 5.15772 5.19928 4.84516 5.51184C4.5326 5.82441 4.10867 6 3.66665 6C3.22462 6 2.8007 5.82441 2.48814 5.51184C2.17557 5.19928 1.99998 4.77536 1.99998 4.33333C1.99998 3.89131 2.17557 3.46738 2.48814 3.15482C2.8007 2.84226 3.22462 2.66667 3.66665 2.66667ZM7.99998 3C7.73476 3 7.48041 3.10536 7.29287 3.29289C7.10534 3.48043 6.99998 3.73478 6.99998 4C6.99998 4.26522 7.10534 4.51957 7.29287 4.70711C7.48041 4.89464 7.73476 5 7.99998 5C8.2652 5 8.51955 4.89464 8.70709 4.70711C8.89462 4.51957 8.99998 4.26522 8.99998 4C8.99998 3.73478 8.89462 3.48043 8.70709 3.29289C8.51955 3.10536 8.2652 3 7.99998 3ZM12.3333 3.66667C12.1565 3.66667 11.9869 3.7369 11.8619 3.86193C11.7369 3.98695 11.6666 4.15652 11.6666 4.33333C11.6666 4.51014 11.7369 4.67971 11.8619 4.80474C11.9869 4.92976 12.1565 5 12.3333 5C12.5101 5 12.6797 4.92976 12.8047 4.80474C12.9297 4.67971 13 4.51014 13 4.33333C13 4.15652 12.9297 3.98695 12.8047 3.86193C12.6797 3.7369 12.5101 3.66667 12.3333 3.66667ZM3.66665 3.66667C3.48984 3.66667 3.32027 3.7369 3.19524 3.86193C3.07022 3.98695 2.99998 4.15652 2.99998 4.33333C2.99998 4.51014 3.07022 4.67971 3.19524 4.80474C3.32027 4.92976 3.48984 5 3.66665 5C3.84346 5 4.01303 4.92976 4.13805 4.80474C4.26307 4.67971 4.33331 4.51014 4.33331 4.33333C4.33331 4.15652 4.26307 3.98695 4.13805 3.86193C4.01303 3.7369 3.84346 3.66667 3.66665 3.66667Z" fill="white"/>
</svg>
