<svg width="16" height="16" viewBox="0 0 16 16" fill="none" xmlns="http://www.w3.org/2000/svg">
<path d="M6.79998 3.60001C6.79998 3.28175 6.9264 2.97652 7.15145 2.75148C7.37649 2.52643 7.68172 2.40001 7.99998 2.40001C8.31824 2.40001 8.62346 2.52643 8.8485 2.75148C9.07355 2.97652 9.19998 3.28175 9.19998 3.60001C9.19998 3.91827 9.07355 4.22349 8.8485 4.44853C8.62346 4.67358 8.31824 4.80001 7.99998 4.80001C7.68172 4.80001 7.37649 4.67358 7.15145 4.44853C6.9264 4.22349 6.79998 3.91827 6.79998 3.60001ZM7.99998 1.60001C7.46954 1.60001 6.96083 1.81072 6.58576 2.18579C6.21069 2.56087 5.99998 3.06957 5.99998 3.60001C5.99998 4.13044 6.21069 4.63915 6.58576 5.01422C6.96083 5.38929 7.46954 5.60001 7.99998 5.60001C8.53041 5.60001 9.03912 5.38929 9.41419 5.01422C9.78926 4.63915 9.99998 4.13044 9.99998 3.60001C9.99998 3.06957 9.78926 2.56087 9.41419 2.18579C9.03912 1.81072 8.53041 1.60001 7.99998 1.60001ZM11.6 4.00001C11.6 3.78783 11.6843 3.58435 11.8343 3.43432C11.9843 3.28429 12.1878 3.20001 12.4 3.20001C12.6121 3.20001 12.8156 3.28429 12.9657 3.43432C13.1157 3.58435 13.2 3.78783 13.2 4.00001C13.2 4.21218 13.1157 4.41566 12.9657 4.56569C12.8156 4.71572 12.6121 4.80001 12.4 4.80001C12.1878 4.80001 11.9843 4.71572 11.8343 4.56569C11.6843 4.41566 11.6 4.21218 11.6 4.00001ZM12.4 2.40001C11.9756 2.40001 11.5687 2.56858 11.2686 2.86864C10.9685 3.16869 10.8 3.57566 10.8 4.00001C10.8 4.42435 10.9685 4.83132 11.2686 5.13138C11.5687 5.43144 11.9756 5.60001 12.4 5.60001C12.8243 5.60001 13.2313 5.43144 13.5313 5.13138C13.8314 4.83132 14 4.42435 14 4.00001C14 3.57566 13.8314 3.16869 13.5313 2.86864C13.2313 2.56858 12.8243 2.40001 12.4 2.40001ZM3.59998 3.20001C3.3878 3.20001 3.18432 3.28429 3.03429 3.43432C2.88426 3.58435 2.79998 3.78783 2.79998 4.00001C2.79998 4.21218 2.88426 4.41566 3.03429 4.56569C3.18432 4.71572 3.3878 4.80001 3.59998 4.80001C3.81215 4.80001 4.01563 4.71572 4.16566 4.56569C4.31569 4.41566 4.39998 4.21218 4.39998 4.00001C4.39998 3.78783 4.31569 3.58435 4.16566 3.43432C4.01563 3.28429 3.81215 3.20001 3.59998 3.20001ZM1.99998 4.00001C1.99998 3.57566 2.16855 3.16869 2.4686 2.86864C2.76866 2.56858 3.17563 2.40001 3.59998 2.40001C4.02432 2.40001 4.43129 2.56858 4.73135 2.86864C5.0314 3.16869 5.19998 3.57566 5.19998 4.00001C5.19998 4.42435 5.0314 4.83132 4.73135 5.13138C4.43129 5.43144 4.02432 5.60001 3.59998 5.60001C3.17563 5.60001 2.76866 5.43144 2.4686 5.13138C2.16855 4.83132 1.99998 4.42435 1.99998 4.00001ZM3.99998 12L4.07998 11.9984C4.13491 12.2699 4.21598 12.5299 4.32318 12.7784C3.9838 12.8245 3.63848 12.7975 3.31043 12.6991C2.98237 12.6007 2.67918 12.4332 2.42122 12.2079C2.16326 11.9826 1.95651 11.7047 1.81486 11.3929C1.67321 11.081 1.59994 10.7425 1.59998 10.4V7.40001C1.59998 6.84801 2.04798 6.40001 2.59998 6.40001H4.30318C4.14297 6.63933 4.04281 6.91375 4.01118 7.20001H2.59998C2.54693 7.20001 2.49606 7.22108 2.45855 7.25858C2.42105 7.29609 2.39998 7.34696 2.39998 7.40001V10.4C2.39998 10.8244 2.56855 11.2313 2.8686 11.5314C3.16866 11.8314 3.57563 12 3.99998 12ZM11.18 7.20001C11.0872 6.74401 10.684 6.40001 10.2 6.40001H5.79998C5.24798 6.40001 4.79998 6.84801 4.79998 7.40001V11.2C4.8 11.6371 4.88955 12.0695 5.06311 12.4706C5.23667 12.8717 5.49057 13.2331 5.80914 13.5323C6.12771 13.8315 6.5042 14.0623 6.91539 14.2105C7.32659 14.3586 7.76377 14.4209 8.19998 14.3936C7.99299 14.1421 7.81456 13.8685 7.66798 13.5776C7.09442 13.4975 6.56918 13.2127 6.18912 12.7757C5.80906 12.3388 5.59981 11.7791 5.59998 11.2V7.40001C5.59998 7.34696 5.62105 7.29609 5.65855 7.25858C5.69606 7.22108 5.74693 7.20001 5.79998 7.20001H11.18ZM11.9888 7.20001H13.4C13.453 7.20001 13.5039 7.22108 13.5414 7.25858C13.5789 7.29609 13.6 7.34696 13.6 7.40001V7.68001C13.8869 7.82721 14.1536 8.00241 14.4 8.20561V7.40001C14.4 6.84801 13.952 6.40001 13.4 6.40001H11.6968C11.8536 6.63361 11.9568 6.90641 11.9888 7.20001ZM11.6 8.00001C10.6452 8.00001 9.72952 8.37929 9.05439 9.05442C8.37926 9.72955 7.99998 10.6452 7.99998 11.6C7.99998 12.5548 8.37926 13.4705 9.05439 14.1456C9.72952 14.8207 10.6452 15.2 11.6 15.2C12.5548 15.2 13.4704 14.8207 14.1456 14.1456C14.8207 13.4705 15.2 12.5548 15.2 11.6C15.2 10.6452 14.8207 9.72955 14.1456 9.05442C13.4704 8.37929 12.5548 8.00001 11.6 8.00001ZM11.6 9.60001C11.7061 9.60001 11.8078 9.64215 11.8828 9.71716C11.9578 9.79218 12 9.89392 12 10V11.2H13.2C13.3061 11.2 13.4078 11.2421 13.4828 11.3172C13.5578 11.3922 13.6 11.4939 13.6 11.6C13.6 11.7061 13.5578 11.8078 13.4828 11.8828C13.4078 11.9579 13.3061 12 13.2 12H12V13.2C12 13.3061 11.9578 13.4078 11.8828 13.4828C11.8078 13.5579 11.7061 13.6 11.6 13.6C11.4939 13.6 11.3921 13.5579 11.3171 13.4828C11.2421 13.4078 11.2 13.3061 11.2 13.2V12H9.99998C9.89389 12 9.79215 11.9579 9.71713 11.8828C9.64212 11.8078 9.59998 11.7061 9.59998 11.6C9.59998 11.4939 9.64212 11.3922 9.71713 11.3172C9.79215 11.2421 9.89389 11.2 9.99998 11.2H11.2V10C11.2 9.89392 11.2421 9.79218 11.3171 9.71716C11.3921 9.64215 11.4939 9.60001 11.6 9.60001Z" fill="white"/>
</svg>
