<svg width="101" height="100" viewBox="0 0 101 100" fill="none" xmlns="http://www.w3.org/2000/svg">
<path d="M91.9167 91.6667H8.58337M8.58337 45.8333L42.4417 18.75C44.6581 16.977 47.4118 16.0111 50.25 16.0111C53.0883 16.0111 55.842 16.977 58.0584 18.75L91.9167 45.8333M64.8334 22.9167V14.5833C64.8334 14.0308 65.0529 13.5009 65.4436 13.1102C65.8343 12.7195 66.3642 12.5 66.9167 12.5H77.3334C77.8859 12.5 78.4158 12.7195 78.8065 13.1102C79.1972 13.5009 79.4167 14.0308 79.4167 14.5833V35.4167M16.9167 91.6667V39.5833M83.5834 91.6667V39.5833" stroke="black" stroke-width="5" stroke-linecap="round"/>
<path d="M62.75 91.6667V70.8333C62.75 64.9417 62.75 61.9958 60.9167 60.1667C59.0917 58.3333 56.1458 58.3333 50.25 58.3333C44.3542 58.3333 41.4125 58.3333 39.5833 60.1667C37.75 61.9917 37.75 64.9375 37.75 70.8333V91.6667M58.5833 39.5833C58.5833 41.7935 57.7054 43.9131 56.1426 45.4759C54.5798 47.0387 52.4601 47.9167 50.25 47.9167C48.0399 47.9167 45.9202 47.0387 44.3574 45.4759C42.7946 43.9131 41.9167 41.7935 41.9167 39.5833C41.9167 37.3732 42.7946 35.2536 44.3574 33.6908C45.9202 32.128 48.0399 31.25 50.25 31.25C52.4601 31.25 54.5798 32.128 56.1426 33.6908C57.7054 35.2536 58.5833 37.3732 58.5833 39.5833Z" stroke="black" stroke-width="5"/>
</svg>
