<?xml version="1.0" encoding="utf-8"?>
<!-- Generator: Adobe Illustrator 26.4.1, SVG Export Plug-In . SVG Version: 6.00 Build 0)  -->
<svg version="1.1" id="Layer_1" xmlns="http://www.w3.org/2000/svg" xmlns:xlink="http://www.w3.org/1999/xlink" x="0px" y="0px"
	 viewBox="0 0 101 100" style="enable-background:new 0 0 101 100;" xml:space="preserve">
<style type="text/css">
	.st0{fill:#FFFFFF;}
</style>
<path d="M28.4,5.6v1c-1.8,0-3.4,0-4.6,0.1c-1.3,0.1-2.5,0.4-3.6,1c-1.3,0.7-2.3,1.8-3.1,3.1c-0.6,1.1-0.9,2.3-1,3.6
	c0,0.5-0.1,1.2-0.1,1.8v0.7l-0.6,0.2c-0.4,0.1-0.8,0.4-1,0.8S14,18.7,14,19.1s0.1,0.9,0.4,1.2s0.6,0.6,1,0.8l0.7,0.2V22
	c0,0.6,0,1.2,0.1,1.8c0.1,1.3,0.4,2.5,1,3.6c0.7,1.3,1.8,2.3,3.1,3.1l0,0c1.1,0.6,2.3,0.9,3.6,1c1.2,0.1,2.8,0.1,4.6,0.1h29.4
	c1.8,0,3.4,0,4.6-0.1l0,0c1.3-0.1,2.5-0.4,3.6-1l0,0c1.3-0.7,2.3-1.8,3.1-3.1c0.6-1.1,0.9-2.3,1-3.6c0-0.5,0.1-1.1,0.1-1.7v-1h1h1.2
	l0,0c1.4,0,2.8,0,4.2,0.1l0,0l0,0c1,0.1,1.6,0.2,2,0.4l0,0l0,0l0,0l0,0c0.8,0.3,1.5,0.8,2.1,1.4s1.1,1.3,1.4,2.1l0,0l0,0
	c0.2,0.6,0.3,1.3,0.3,2l0,0c0.1,1,0.1,2.3,0.1,4.2c0,1.7,0,2.9-0.1,3.7c0,0.8-0.1,1.3-0.3,1.8l0,0c-0.4,1.6-1.4,2.8-2.8,3.6l0,0
	c-0.5,0.2-1,0.4-1.8,0.6c-0.8,0.2-1.9,0.3-3.6,0.6l0,0l-17.2,2.6c-3.2,0.5-5.9,0.9-7.9,1.5l0,0c-2.2,0.6-4,1.5-5.3,3.1
	c-1.6,1.9-2.2,4.2-2.4,7l-0.1,0.9h-0.9c-0.7,0-1.3,0.1-1.9,0.1c-1.4,0.2-2.7,0.6-3.8,1.7c-1.1,1.1-1.5,2.4-1.7,3.8l0,0
	c-0.2,1.3-0.2,2.8-0.2,4.7v17c0,1.8,0,3.4,0.2,4.7c0.2,1.4,0.6,2.7,1.7,3.8c1.1,1.1,2.4,1.5,3.8,1.7l0,0c1.3,0.2,2.8,0.2,4.7,0.2
	h0.4c1.8,0,3.4,0,4.7-0.2l0,0c1.4-0.2,2.7-0.6,3.8-1.7s1.5-2.4,1.7-3.8l0,0c0.2-1.3,0.2-2.8,0.2-4.7V67c0-1.8,0-3.4-0.2-4.7
	c-0.2-1.4-0.6-2.7-1.7-3.8c-1.1-1.1-2.4-1.5-3.8-1.7c-0.5-0.1-1-0.1-1.6-0.1h-1.1l0.1-1c0.2-2.1,0.6-3.3,1.3-4.1l0,0l0,0l0,0l0,0
	c0.6-0.7,1.5-1.3,3.3-1.8l0,0c1.8-0.5,4.2-0.9,7.6-1.4l0,0l17-2.5l0,0l0.5-0.1l0,0c2.8-0.4,4.7-0.7,6.2-1.5l0,0
	c2.3-1.2,4.1-3.3,5-5.8l0,0c0.6-1.7,0.6-3.6,0.6-6.4v-0.7c0-1.8,0-3.2-0.1-4.4l0,0c-0.1-1.2-0.2-2.3-0.6-3.3l0,0
	c-0.5-1.3-1.3-2.6-2.3-3.6s-2.2-1.8-3.6-2.3l0,0c-1-0.4-2.1-0.6-3.3-0.6l0,0c-1.2-0.1-2.6-0.1-4.4-0.1h-1.4h-1v-1
	c0-0.6,0-1.2-0.1-1.7c-0.1-1.3-0.4-2.5-1-3.6c-0.8-1.3-1.8-2.3-3.1-3.1c-1.1-0.6-2.3-0.9-3.6-1l0,0c-1.2-0.1-2.8-0.1-4.6-0.1H28.4
	V5.6L28.4,5.6z M47.4,61L47.4,61L47.4,61L47.4,61L47.4,61c0.3,0,0.6,0.1,0.9,0.2l0,0l0,0l0,0h0.1l0.4,0.1l0.2,0.5l0,0l0,0
	c0.1,0.3,0.2,0.6,0.2,0.9l0,0l0,0l0,0l0,0c0.1,1,0.1,2.3,0.1,4.3v16.7c0,2,0,3.3-0.1,4.2l0,0l0,0l0,0l0,0c0,0.3-0.1,0.6-0.2,0.9v0.1
	l0,0l-0.1,0.3l-0.3,0.2l0,0l-0.3,0.2h-0.2c-0.2,0.1-0.5,0.1-0.8,0.2l0,0l0,0l0,0l0,0c-1,0.1-2.2,0.1-4.2,0.1s-3.3,0-4.3-0.1l0,0
	c-0.5-0.1-0.7-0.1-0.9-0.2l0,0l0,0l-0.4-0.2l-0.2-0.5l0,0l0,0c-0.1-0.3-0.2-0.6-0.2-0.9l0,0l0,0l0,0l0,0C37,87,37,85.7,37,83.7V67.1
	c0-2,0-3.3,0.1-4.2l0,0l0,0l0,0l0,0c0-0.3,0.1-0.6,0.2-0.9v-0.1l0,0l0.1-0.4l0.5-0.2l0,0l0,0c0.3-0.1,0.6-0.2,0.9-0.2l0,0l0,0l0,0
	l0,0c1-0.1,2.3-0.1,4.3-0.1l0,0v1l0,0v-1C45.2,60.9,46.4,60.9,47.4,61z M28.6,10.9h29.2l0,0c1.4,0,2.9,0,4.3,0.1l0,0l0,0
	c1,0.1,1.5,0.3,1.9,0.5l0,0c0.6,0.4,1.1,0.9,1.5,1.5l0,0l0,0l0,0l0,0c0.2,0.3,0.4,0.9,0.5,1.9l0,0c0.1,1,0.1,2.4,0.1,4.4
	s0,3.3-0.1,4.4l0,0c-0.1,1-0.2,1.5-0.5,1.9l0,0l0,0l0,0l0,0c-0.4,0.6-0.9,1.1-1.5,1.5l0,0l0,0c-0.3,0.2-0.8,0.4-1.8,0.4l0,0l0,0l0,0
	l0,0c-1,0.1-2.4,0.1-4.4,0.1H28.6c-2,0-3.3,0-4.4-0.1l0,0c-1-0.1-1.5-0.3-1.9-0.5l0,0c-0.6-0.4-1.2-0.9-1.5-1.5l0,0
	c-0.2-0.3-0.4-0.8-0.4-1.8l0,0c-0.1-1-0.1-2.4-0.1-4.4s0-3.3,0.1-4.4l0,0c0.1-1,0.3-1.5,0.5-1.9l0,0c0.4-0.6,0.9-1.2,1.5-1.5l0,0
	c0.3-0.2,0.8-0.4,1.8-0.4l0,0l0,0l0,0l0,0C25.2,10.9,26.6,10.9,28.6,10.9z"/>
</svg>
