<?xml version="1.0" encoding="utf-8"?>
<!-- Generator: Adobe Illustrator 26.4.1, SVG Export Plug-In . SVG Version: 6.00 Build 0)  -->
<svg version="1.1" id="Layer_1" xmlns="http://www.w3.org/2000/svg" xmlns:xlink="http://www.w3.org/1999/xlink" x="0px" y="0px"
	 viewBox="0 0 101 100" style="enable-background:new 0 0 101 100;" xml:space="preserve">
<style type="text/css">
	.st0{fill-rule:evenodd;clip-rule:evenodd;}
</style>
<path class="st0" d="M36,5.2v1c-1.8,0-3.4,0-4.6,0.1c-1.3,0.1-2.5,0.4-3.6,1c-1.3,0.7-2.3,1.8-3.1,3.1c-0.6,1.1-0.9,2.3-1,3.6
	c0,0.5-0.1,1.2-0.1,1.8l0,0.7L23,16.7c-0.4,0.1-0.8,0.4-1,0.8s-0.4,0.8-0.4,1.2s0.1,0.9,0.4,1.2s0.6,0.6,1,0.8l0.7,0.2l0,0.7
	c0,0.6,0,1.2,0.1,1.8c0.1,1.3,0.4,2.5,1,3.6c0.7,1.3,1.8,2.3,3.1,3.1l0,0c1.1,0.6,2.3,0.9,3.6,1c1.2,0.1,2.8,0.1,4.6,0.1h29.4
	c1.8,0,3.4,0,4.6-0.1v0c1.3-0.1,2.5-0.4,3.6-1l0,0c1.3-0.7,2.3-1.8,3.1-3.1c0.6-1.1,0.9-2.3,1-3.6c0-0.5,0.1-1.1,0.1-1.7l0-1h1h1.2
	v0c1.4,0,2.8,0,4.2,0.1l0,0l0,0c1,0.1,1.6,0.2,2,0.4l0,0c0,0,0,0,0,0c0,0,0,0,0,0l0,0c0.8,0.3,1.5,0.8,2.1,1.4
	c0.6,0.6,1.1,1.3,1.4,2.1l0,0l0,0c0.2,0.6,0.3,1.3,0.3,2l0,0c0.1,1,0.1,2.3,0.1,4.2c0,1.7,0,2.9-0.1,3.7c0,0.8-0.1,1.3-0.3,1.8l0,0
	C89.4,38,88.4,39.2,87,40l0,0c-0.5,0.2-1,0.4-1.8,0.6c-0.8,0.2-1.9,0.3-3.6,0.6v0l-17.2,2.6c-3.2,0.5-5.9,0.9-7.9,1.5l0,0
	c-2.2,0.6-4,1.5-5.3,3.1c-1.6,1.9-2.2,4.2-2.4,7l-0.1,0.9l-0.9,0c-0.7,0-1.3,0.1-1.9,0.1c-1.4,0.2-2.7,0.6-3.8,1.7
	c-1.1,1.1-1.5,2.4-1.7,3.8l0,0c-0.2,1.3-0.2,2.8-0.2,4.7v17c0,1.8,0,3.4,0.2,4.7c0.2,1.4,0.6,2.7,1.7,3.8c1.1,1.1,2.4,1.5,3.8,1.7v0
	c1.3,0.2,2.8,0.2,4.7,0.2h0.4c1.8,0,3.4,0,4.7-0.2v0c1.4-0.2,2.7-0.6,3.8-1.7c1.1-1.1,1.5-2.4,1.7-3.8l0,0c0.2-1.3,0.2-2.8,0.2-4.7
	v-17c0-1.8,0-3.4-0.2-4.7c-0.2-1.4-0.6-2.7-1.7-3.8c-1.1-1.1-2.4-1.5-3.8-1.7c-0.5-0.1-1-0.1-1.6-0.1l-1.1,0l0.1-1
	c0.2-2.1,0.6-3.3,1.3-4.1l0,0c0,0,0,0,0,0c0,0,0,0,0,0l0,0c0.6-0.7,1.5-1.3,3.3-1.8v0c1.8-0.5,4.2-0.9,7.6-1.4v0l17-2.5h0l0.5-0.1
	l0,0c2.8-0.4,4.7-0.7,6.2-1.5l0,0c2.3-1.2,4.1-3.3,5-5.8l0,0c0.6-1.7,0.6-3.6,0.6-6.4V31c0-1.8,0-3.2-0.1-4.4h0
	c-0.1-1.2-0.2-2.3-0.6-3.3l0,0c-0.5-1.3-1.3-2.6-2.3-3.6c-1-1-2.2-1.8-3.6-2.3l0,0c-1-0.4-2.1-0.6-3.3-0.6v0
	c-1.2-0.1-2.6-0.1-4.4-0.1h-1.4h-1l0-1c0-0.6,0-1.2-0.1-1.7c-0.1-1.3-0.4-2.5-1-3.6C76,9.1,75,8.1,73.7,7.3c-1.1-0.6-2.3-0.9-3.6-1
	l0,0c-1.2-0.1-2.8-0.1-4.6-0.1H36L36,5.2L36,5.2z M55,60.6L55,60.6C55,60.6,55,60.6,55,60.6C55,60.6,55,60.6,55,60.6L55,60.6
	c0.3,0,0.6,0.1,0.9,0.2l0,0l0,0l0,0l0.1,0l0.4,0.1l0.2,0.5l0,0l0,0c0.1,0.3,0.2,0.6,0.2,0.9l0,0c0,0,0,0,0,0c0,0,0,0,0,0h0
	c0.1,1,0.1,2.3,0.1,4.3v16.7c0,2,0,3.3-0.1,4.2l0,0l0,0c0,0,0,0,0,0l0,0c0,0.3-0.1,0.6-0.2,0.9l0,0.1l0,0l-0.1,0.3l-0.3,0.2l0,0
	l-0.3,0.2h-0.2c-0.2,0.1-0.5,0.1-0.8,0.2l0,0c0,0,0,0,0,0c0,0,0,0,0,0v0c-1,0.1-2.2,0.1-4.2,0.1c-2,0-3.3,0-4.3-0.1l0,0
	c-0.5-0.1-0.7-0.1-0.9-0.2l0,0l0,0L45.1,89l-0.2-0.5l0,0l0,0c-0.1-0.3-0.2-0.6-0.2-0.9l0,0c0,0,0,0,0,0c0,0,0,0,0,0h0
	c-0.1-1-0.1-2.3-0.1-4.3V66.7c0-2,0-3.3,0.1-4.2h0c0,0,0,0,0,0c0,0,0,0,0,0l0,0c0-0.3,0.1-0.6,0.2-0.9l0-0.1l0,0l0.1-0.4l0.5-0.2
	l0,0l0,0c0.3-0.1,0.6-0.2,0.9-0.2l0,0c0,0,0,0,0,0c0,0,0,0,0,0v0c1-0.1,2.3-0.1,4.3-0.1h0v1h0v-1C52.8,60.5,54,60.5,55,60.6z
	 M36.2,10.5h29.2v0c1.4,0,2.9,0,4.3,0.1l0,0l0,0c1,0.1,1.5,0.3,1.9,0.5l0,0c0.6,0.4,1.1,0.9,1.5,1.5l0,0c0,0,0,0,0,0c0,0,0,0,0,0
	l0,0c0.2,0.3,0.4,0.9,0.5,1.9h0c0.1,1,0.1,2.4,0.1,4.4c0,2,0,3.3-0.1,4.4l0,0c-0.1,1-0.2,1.5-0.5,1.9l0,0c0,0,0,0,0,0c0,0,0,0,0,0
	l0,0c-0.4,0.6-0.9,1.1-1.5,1.5l0,0l0,0c-0.3,0.2-0.8,0.4-1.8,0.4v0c0,0,0,0,0,0c0,0,0,0,0,0v0c-1,0.1-2.4,0.1-4.4,0.1H36.2
	c-2,0-3.3,0-4.4-0.1v0c-1-0.1-1.5-0.3-1.9-0.5l0,0c-0.6-0.4-1.2-0.9-1.5-1.5l0,0c-0.2-0.3-0.4-0.8-0.4-1.8h0c-0.1-1-0.1-2.4-0.1-4.4
	c0-2,0-3.3,0.1-4.4h0c0.1-1,0.3-1.5,0.5-1.9l0,0c0.4-0.6,0.9-1.2,1.5-1.5l0,0c0.3-0.2,0.8-0.4,1.8-0.4v0c0,0,0,0,0,0c0,0,0,0,0,0v0
	C32.8,10.5,34.2,10.5,36.2,10.5z"/>
</svg>
