<svg width="101" height="100" viewBox="0 0 101 100" fill="none" xmlns="http://www.w3.org/2000/svg">
<path d="M8.58325 37.5C8.58325 25.7167 8.58325 19.8208 12.2458 16.1625C15.9041 12.5 21.7999 12.5 33.5833 12.5H66.9166C78.6999 12.5 84.5958 12.5 88.2541 16.1625C91.9166 19.8208 91.9166 25.7167 91.9166 37.5V41.6667C91.9166 53.45 91.9166 59.3458 88.2541 63.0042C84.5958 66.6667 78.6999 66.6667 66.9166 66.6667H33.5833C21.7999 66.6667 15.9041 66.6667 12.2458 63.0042C8.58325 59.3458 8.58325 53.45 8.58325 41.6667V37.5Z" stroke="black" stroke-width="5"/>
<path d="M50.25 79.1667V68.75M50.25 79.1667L75.25 87.5M50.25 79.1667L25.25 87.5" stroke="black" stroke-width="5" stroke-linecap="round"/>
</svg>
