<svg width="101" height="100" viewBox="0 0 101 100" fill="none" xmlns="http://www.w3.org/2000/svg">
<path d="M23.9 75H77.6001C81.5297 75 85.2984 73.4389 88.077 70.6602C90.8557 67.8816 92.4167 64.1129 92.4167 60.1833V50C92.4167 47.7898 91.5387 45.6702 89.9759 44.1074C88.4131 42.5446 86.2935 41.6666 84.0834 41.6666C81.8733 41.6666 79.7536 42.5446 78.1908 44.1074C76.628 45.6702 75.7501 47.7898 75.7501 50V55C75.7501 55.884 75.3989 56.7319 74.7737 57.357C74.1486 57.9821 73.3008 58.3333 72.4167 58.3333H29.0834C28.1993 58.3333 27.3515 57.9821 26.7264 57.357C26.1012 56.7319 25.75 55.884 25.75 55V50C25.75 47.7898 24.8721 45.6702 23.3093 44.1074C21.7465 42.5446 19.6268 41.6666 17.4167 41.6666C15.2066 41.6666 13.087 42.5446 11.5242 44.1074C9.96135 45.6702 9.08337 47.7898 9.08337 50V60.1833C9.08337 64.1129 10.6444 67.8816 13.4231 70.6602C16.2017 73.4389 19.9704 75 23.9 75Z" stroke="white" stroke-width="5"/>
<path d="M84.0834 41.6666C84.0834 37.7916 84.0834 35.8583 83.7626 34.25C83.1196 31.0167 81.5322 28.0467 79.2011 25.7156C76.87 23.3845 73.9 21.7971 70.6667 21.1541C69.0584 20.8333 67.1251 20.8333 63.2501 20.8333H38.2501C34.3751 20.8333 32.4417 20.8333 30.8334 21.1541C27.6001 21.7971 24.6301 23.3845 22.299 25.7156C19.968 28.0467 18.3806 31.0167 17.7376 34.25C17.4167 35.8583 17.4167 37.7916 17.4167 41.6666M50.7501 20.8333V58.3333" stroke="white" stroke-width="5"/>
<path d="M84.0834 79.1667V75M17.4167 79.1667V75" stroke="white" stroke-width="5" stroke-linecap="round"/>
</svg>
