<?xml version="1.0" encoding="utf-8"?>
<!-- Generator: Adobe Illustrator 26.4.1, SVG Export Plug-In . SVG Version: 6.00 Build 0)  -->
<svg version="1.1" id="Layer_24" xmlns="http://www.w3.org/2000/svg" xmlns:xlink="http://www.w3.org/1999/xlink" x="0px" y="0px"
	 viewBox="0 0 1070.3 418.9" style="enable-background:new 0 0 1070.3 418.9;" xml:space="preserve">
<style type="text/css">
	.st0{enable-background:new    ;}
	.st1{fill:#FFFFFF;}
</style>
<g id="Layer_23">
	<g class="st0">
		<path class="st1" d="M567,308.6V110.3h143.4v23.4H593.3v60.7H703v23.3H593.3v67.5H715v23.4H567z"/>
		<path class="st1" d="M748.2,308.6V164.9h21.9v20.4c10.6-15.8,25.8-23.7,45.7-23.7c8.7,0,16.6,1.6,23.9,4.7
			c7.3,3.1,12.7,7.2,16.3,12.2c3.6,5.1,6.1,11.1,7.6,18c0.9,4.5,1.4,12.4,1.4,23.7v88.3h-24.4v-87.4c0-9.9-0.9-17.3-2.8-22.3
			c-1.9-4.9-5.3-8.8-10.1-11.8c-4.8-2.9-10.5-4.4-17-4.4c-10.4,0-19.3,3.3-26.9,9.9c-7.5,6.6-11.3,19.1-11.3,37.5v78.5H748.2z"/>
		<path class="st1" d="M902.4,308.6V110.3h24.4v113.1l57.6-58.4h31.5L961,218.2l60.5,90.4h-30l-47.5-73.5l-17.2,16.5v57H902.4z"/>
		<path class="st1" d="M1041,138.3v-28h24.4v28H1041z M1041,308.6V164.9h24.4v143.7H1041z"/>
	</g>
	<g>
		<path class="st1" d="M260.9,413.9c-0.5-0.8-0.7-1-0.7-1.2c0-31.7,0-63.5,0-95.2c0-63.2,0-126.4-0.1-189.7c0-4.4,0-8.8,0.1-13.2
			c0-1.8,0.2-1.9,2.1-2.4c8.4-1.9,15.3-6.2,21.2-12.5c5.2-5.6,8.6-12.1,10.2-19.6c0.1-0.4,0.2-0.7,0.4-1c0-0.1,0.2-0.3,0.2-0.2
			c0.2,0.1,0.4,0.2,0.6,0.3c0.1,0.1,0.1,0.2,0.1,0.3c0.4,5.8,0.5,11.5-1.1,17.1c-2.9,10.2-8.3,18.8-17.3,24.7c-1.7,1.1-2,2.4-2,4.3
			c0,20.2,0,40.4,0,60.6c0,63.7,0,127.4,0.1,191.1c0,4.5-0.7,8.6-2.7,12.7C268,397.7,264.6,405.6,260.9,413.9L260.9,413.9z"/>
		<path class="st1" d="M213.6,78.8c0.2,0.7,0.4,1.4,0.5,2.1c3.9,15.8,13.7,26.2,29.3,30.9c3.9,1.2,3.9,1.1,3.9,5.1
			c0,40.6-0.1,81.1-0.1,121.6c0,54.9-0.1,109.8-0.1,164.6c0,3.3-0.2,6.6-0.3,9.8c-0.7,0.1-0.9-0.1-1-0.5c-3.5-7.7-7-15.4-10.4-23.1
			c-0.1-0.3-0.3-0.7-0.4-1c-1.6-3.1-2.1-6.4-2.1-9.9c0-53.5,0-107.1,0-160.6c0-30.4,0-60.8,0-91.1c0-4.8,0.2-3.8-3.4-6.5
			c-8.1-6.1-13.4-14.2-15.8-24.1C212.3,90.4,211.8,84.6,213.6,78.8L213.6,78.8z"/>
		<path class="st1" d="M5.1,5.3c1-0.6,1.9,0,2.8,0.3c7.3,2.4,14.6,4.9,21.9,7.3c18.7,6,37.5,12,56.3,18c10.6,3.4,21.2,6.7,31.9,10
			c20.3,6.3,40.7,12.5,61,18.8c4.1,1.3,8.2,2.4,12.3,3.7c2,0.6,2,0.8,1.4,2.9c-1.1,3.4-2.2,6.8-2.6,10.3c-0.1,0.5-0.2,0.9-0.3,1.4
			c-0.4,1.4-0.8,1.7-2,1.4c-1.3-0.3-2.6-0.7-3.9-1.1c-20.1-5.8-40.2-11.7-60.2-17.6c-23-6.8-46-13.6-68.9-20.4
			c-8-2.4-16-4.7-23.8-7.4C17.6,28.1,9.1,18.9,5,5.6C5,5.5,5.1,5.4,5.1,5.3L5.1,5.3z"/>
		<path class="st1" d="M319.5,79.3c-1.4,0.2-1.7-0.5-1.9-1.2c-0.6-2.4-1.1-4.8-1.7-7.1c-0.4-1.5-0.9-3.1-1.3-4.6
			c-0.6-1.9-0.4-2.2,1.6-2.9c2.3-0.8,4.7-1.4,7-2.1c28.3-8.7,56.6-17.4,84.9-26.2c26.9-8.4,53.7-17.1,80.5-25.6
			c4.2-1.3,8.3-2.9,12.5-4.3c0.8-0.3,1.5,0.1,1.2,1.1c-4,12.6-12,21.5-24.4,26.1c-6.3,2.3-12.8,4.1-19.3,6
			c-17.1,5.2-34.2,10.3-51.3,15.4c-22.6,6.7-45.3,13.4-68,20c-6,1.8-12,3.4-18,5.1C320.5,79,319.8,79.2,319.5,79.3L319.5,79.3z"/>
		<path class="st1" d="M313.4,116.7c0-0.6-0.1-0.9-0.1-1.1c1.7-5.2,3.1-10.6,4-16c0.2-1.1,0.8-1.7,1.9-1.9
			c15.4-3.8,30.7-8.4,46-12.7c28.4-8,56.7-16.2,85-24.3c11.3-3.2,22.5-6.6,33.8-10c2.9-0.9,5.8-1.8,8.8-2.7c1.2-0.4,1.8,0.1,1.4,1.2
			c-4.3,13-12.5,22.4-26,26.3c-10.8,3.2-21.7,6-32.5,9c-17,4.6-34,9.2-51,13.7c-18.1,4.8-36.2,9.4-54.3,14.1
			C324.7,113.7,319.2,115.2,313.4,116.7L313.4,116.7z"/>
		<path class="st1" d="M194,116.2c-1.9,0-3.8-0.7-5.6-1.2c-19-4.9-37.9-9.8-56.8-14.8C106,93.5,80.5,86.7,55,79.9
			c-5.2-1.4-10.4-2.8-15.5-4.4c-9.5-3-16.9-8.7-22.1-17.2c-0.9-1.5-1.7-3-2.3-4.6c-0.7-1.8-2-3.6-1.5-5.8c2-0.3,3.8,0.8,5.6,1.3
			C40,55.8,61,61.9,82.1,67.9c11.8,3.3,23.5,6.8,35.3,10.1c22,6.2,44.1,12.3,66.1,18.4c1.8,0.5,3.6,0.9,5.3,1.4
			c0.6,0.2,1.1,0.6,1.2,1.3c0.7,5.7,2.6,11.2,4.2,16.7C194.2,115.8,194.1,115.9,194,116.2L194,116.2z"/>
		<path class="st1" d="M295.6,151.9c0.7-5.8,2.1-11.1,4.6-16c0.8-1.6,2-2.4,3.6-2.8c13.6-3,27.3-5.9,40.9-8.9
			c26.3-5.8,52.5-11.7,78.7-18c16-3.9,32.1-7.8,48.1-11.7c0.5-0.1,0.9-0.3,1.4-0.3c0.3,0,0.7,0.3,0.6,0.7c-0.1,0.4-0.1,0.7-0.3,1.1
			c-2.7,7.3-6.7,13.6-12.9,18.4c-4.4,3.5-9.5,5.6-14.9,6.8c-10.1,2.2-20.1,4.3-30.2,6.5c-11.5,2.4-23,4.9-34.4,7.3
			c-10.5,2.2-21.1,4.4-31.7,6.5c-9.5,2-18.9,3.9-28.4,5.9c-7.8,1.6-15.6,3.1-23.4,4.6C297,152,296.5,151.9,295.6,151.9L295.6,151.9z
			"/>
		<path class="st1" d="M212.1,150.2c0.1,1.7-0.3,2.1-1.7,1.8c-3-0.5-6-1.1-9-1.8c-11.6-2.4-23.3-4.7-34.9-7.1
			c-12.1-2.5-24.2-5-36.3-7.5c-10.5-2.2-21.1-4.3-31.6-6.6c-12.5-2.6-25-5.1-37.3-8.1c-13.9-3.3-22.7-12.4-27.3-25.7
			c-0.3-0.9,0.2-1.3,1.2-1.1c8.4,2.1,16.8,4.4,25.2,6.4c16.2,3.9,32.4,7.8,48.6,11.6c10.5,2.5,21,5,31.5,7.3
			c14.9,3.3,29.9,6.6,44.9,9.8c6.1,1.3,12.2,2.7,18.3,3.9c2.1,0.4,3.5,1.3,4.5,3.3C210.1,141,211.4,145.6,212.1,150.2L212.1,150.2z"
			/>
		<path class="st1" d="M446.5,142.7c-5,12.7-13.2,21.5-27,24c-5,0.9-10.1,1.6-15.2,2.3c-5.1,0.8-10.2,1.5-15.2,2.3
			c-5.7,0.9-11.3,1.9-17,2.8c-11.6,1.8-23.2,3.6-34.8,5.4c-9.1,1.4-18.1,2.8-27.2,4.2c-4.4,0.7-8.7,1.3-13,1.9
			c-0.8,0.1-1.2-0.3-1.2-1c-0.1-1.8-0.2-3.7-0.2-5.5c0-2.3,0-4.6,0-7c0-2.2,0.3-2.4,2.4-2.9c1.6-0.3,3.1-0.5,4.7-0.8
			c15.6-2.9,31.3-5.8,46.9-8.6c10.6-1.9,21.2-3.6,31.8-5.6c13.7-2.5,27.4-5.1,41.1-7.6c6.4-1.2,12.8-2.4,19.1-3.6
			C443.2,142.7,444.7,142.3,446.5,142.7L446.5,142.7z"/>
		<path class="st1" d="M61.4,142.5c2.4,0,4.8,0.7,7.1,1.1c10,1.8,20,3.6,30,5.5c7.3,1.4,14.7,2.8,22,4.1c9.1,1.7,18.3,3.2,27.5,4.9
			c9.4,1.7,18.8,3.4,28.2,5.1c9.4,1.7,18.8,3.4,28.2,5c1.9,0.3,3.9,0.6,5.8,0.9c1.5,0.3,2,0.7,2,2.1c0,4.3,0,8.6,0,12.9
			c0,1.2-0.5,1.5-1.6,1.4c-4.8-0.7-9.7-1.4-14.5-2.2c-10.9-1.7-21.8-3.3-32.7-5c-8.5-1.3-16.9-2.7-25.4-4
			c-5.4-0.8-10.9-1.6-16.3-2.4c-4.7-0.7-9.4-1.5-14.1-2.2c-6.3-1-12.6-1.9-18.8-3c-5.2-0.9-10.2-2.6-14.5-5.8
			c-6-4.4-10-10.3-12.8-17.1c-0.1-0.2-0.1-0.5-0.1-0.7C61.2,142.9,61.3,142.8,61.4,142.5L61.4,142.5z"/>
		<path class="st1" d="M411.8,189.8c-0.1,0.4,0,0.8-0.2,1.1c-2.1,3.5-4.3,6.8-7,9.9c-5,5.6-11.3,8.9-18.6,10.2
			c-4.5,0.8-9,1-13.5,1.4c-14.4,1.4-28.8,2.6-43.2,3.9c-6.1,0.5-12.2,1.2-18.3,1.7c-3.4,0.3-6.9,0.3-10.2,0.8
			c-0.9,0.1-1.6-0.3-1.9-1.3c-1.2-4.4-2.4-8.7-3.6-13.1c-0.3-1.1,0.1-1.4,1.4-1.6c6.1-0.7,12.2-1.4,18.2-2.1
			c10.6-1.3,21.1-2.7,31.7-4c9.8-1.2,19.7-2.2,29.5-3.4c7.7-0.9,15.3-1.8,23-2.7c3-0.4,6.1-0.7,9.1-0.9
			C409.4,189.5,410.6,189.4,411.8,189.8z"/>
		<path class="st1" d="M202.6,218.2c-9.4-0.8-18.8-1.5-28.2-2.4c-13-1.1-26.1-2.3-39.1-3.5c-5.4-0.5-10.7-0.8-16-2
			c-5.5-1.3-10.3-3.9-14.4-7.7c-3.6-3.4-6.4-7.4-8.9-11.6c-0.5-0.9-0.2-1.4,0.7-1.4c0.7,0,1.5,0,2.2,0.1c5.5,0.6,10.9,1.3,16.4,1.9
			c5.8,0.6,11.7,1.2,17.5,1.8c7.5,0.8,15.1,1.8,22.6,2.6c4.5,0.5,9,1,13.5,1.5c9.4,1.1,18.7,2.3,28.1,3.5c4.5,0.6,9,1.1,13.5,1.7
			c1.3,0.2,1.6,0.4,1.3,1.6c-1,4.3-2.1,8.5-3.2,12.8c-0.3,1-0.9,1.3-1.9,1.3C205.2,218.3,203.9,218.2,202.6,218.2L202.6,218.2
			L202.6,218.2z"/>
		<path class="st1" d="M286.5,209.1c0.3,0.2,0.5,0.2,0.5,0.3c0.3,1.3,0.6,2.6,0.8,4c0.8,5.6,1.7,11.1,2.5,16.7
			c1.1,7.9,2.2,15.8,3.3,23.6c0.7,5.1,1.5,10.2,2.1,15.3c0.9,6.8,1.7,13.6,2.5,20.4c0.7,6.3,1.6,12.6,2,19
			c0.4,5.6,0.4,11.3,0.3,16.9c-0.2,13.7-4.5,26.2-12.3,37.4c-0.2,0.3-0.4,0.6-0.6,0.9c-0.1,0.1-0.4,0.2-0.6,0.3
			c-0.3,0-0.5-0.1-0.5-0.5c0-0.7,0-1.5,0-2.2c0-43,0-86,0-129c0-6.6,0-13.2,0-19.8C286.4,211.3,286.5,210.3,286.5,209.1L286.5,209.1
			z"/>
		<path class="st1" d="M220.7,208.5c0.6,0.6,0.3,1.4,0.3,2c0,47.2-0.1,94.5-0.2,141.7c0,2.6,0.1,5.1-0.1,7.7
			c-0.1,1.2,0.7,2.6-0.5,3.8c-1.2-0.7-1.6-2.1-2.3-3.2c-5-8-8.1-16.6-9.7-25.9c-1.4-7.8-1.5-15.6-0.8-23.4
			c0.6-6.6,1.1-13.2,1.8-19.7c0.5-5.4,1.3-10.7,2-16c0.6-5.1,1.1-10.2,1.8-15.3c0.7-5.8,1.5-11.6,2.3-17.4
			c0.9-6.8,1.9-13.6,2.8-20.4c0.6-4.2,1.3-8.5,1.9-12.7C220.2,209.3,220.1,208.8,220.7,208.5L220.7,208.5z"/>
		<path class="st1" d="M179,248.9c-6.9,0-13.7,0-20.5-0.3c-5.1-0.2-9.6-1.8-13.5-5.1c-3.7-3.1-7-6.5-9.4-10.7
			c-0.5-0.9-0.3-1.4,0.7-1.4c2.9,0,5.9,0,8.8,0.2c6.6,0.3,13.2,0.7,19.8,1.1c7,0.4,13.9,0.7,20.9,1c5.5,0.3,11,0.5,16.5,0.8
			c0.7,0,1.5,0.1,2.2,0.2c0.7,0.1,1,0.6,1,1.3c0.1,1.5-0.5,2.9-0.8,4.3c-0.4,2.4-0.9,4.8-1.4,7.2c-0.2,0.8-0.7,1.3-1.5,1.3
			c-1.1,0-2.2,0.1-3.3,0.1C192,248.9,185.5,248.9,179,248.9L179,248.9z"/>
		<path class="st1" d="M328.7,249c-6.2,0-12.5,0-18.7,0c-1.2,0-2.5,0-3.7-0.1c-1,0-1.6-0.6-1.8-1.5c-0.3-1.4-0.6-2.9-0.9-4.3
			c-0.4-2.4-0.8-4.8-1.2-7.2c-0.1-0.7,0.4-1.2,1-1.3c0.7-0.1,1.5-0.1,2.2-0.2c11.4-0.5,22.7-1,34.1-1.5c8.8-0.4,17.6-0.9,26.4-1.4
			c0.2,0,0.5,0,0.7,0c1.7,0.2,3.6-0.7,5.2,0.5c-0.3,1.8-1.7,2.9-2.7,4.3c-2,2.8-4.4,5.3-7.1,7.4c-3.8,3-7.9,4.6-12.8,4.9
			C342.6,249,335.6,248.9,328.7,249L328.7,249z"/>
		<path class="st1" d="M286.4,49.1c-0.3-0.1-0.8-0.1-1-0.3c-8.3-6.8-17.9-10.3-28.6-10.9c-11.7-0.6-22.5,2.1-32.2,9
			c-1.2,0.8-2.3,1.8-3.4,2.7c-0.5-0.6-0.3-1,0-1.4c1.9-3.7,3.8-7.4,6.6-10.6c6-6.7,13.4-10.4,22.3-11.4c6.1-0.7,11.9,0.2,17.6,2.6
			c7.8,3.3,13.3,8.9,17.2,16.3C285.5,46.4,286.5,47.6,286.4,49.1L286.4,49.1L286.4,49.1z"/>
		<path class="st1" d="M286.3,49.2c0.5,0.2,0.1-0.4,0.3,0c0,0.1,0,0.2,0,0.3C286.4,49.6,286.3,49.4,286.3,49.2L286.3,49.2
			L286.3,49.2z"/>
	</g>
</g>
</svg>
